<svg xmlns="http://www.w3.org/2000/svg" style="display:none" aria-hidden="true">
  <!-- Hand-drawn line icons, 24x24 viewBox, stroke=currentColor -->
  <symbol id="ic-bot" viewBox="0 0 24 24" fill="none" stroke="currentColor" stroke-width="1.7" stroke-linecap="round" stroke-linejoin="round">
    <rect x="4" y="8" width="16" height="11" rx="2.5"/><path d="M12 8V4M12 4h-2M12 4h2"/><circle cx="9" cy="13" r="1.3"/><circle cx="15" cy="13" r="1.3"/><path d="M9.5 16.3h5"/><path d="M4 12H2M22 12h-2"/>
  </symbol>
  <symbol id="ic-api" viewBox="0 0 24 24" fill="none" stroke="currentColor" stroke-width="1.7" stroke-linecap="round" stroke-linejoin="round">
    <circle cx="6" cy="12" r="2.4"/><circle cx="18" cy="6" r="2.4"/><circle cx="18" cy="18" r="2.4"/><path d="M8.1 10.8 15.9 7.2M8.1 13.2l7.8 3.6"/>
  </symbol>
  <symbol id="ic-funds" viewBox="0 0 24 24" fill="none" stroke="currentColor" stroke-width="1.7" stroke-linecap="round" stroke-linejoin="round">
    <path d="M4 20h16"/><rect x="5" y="12" width="3.2" height="6"/><rect x="10.4" y="8" width="3.2" height="10"/><rect x="15.8" y="4.5" width="3.2" height="13.5"/>
  </symbol>
  <symbol id="ic-accounting" viewBox="0 0 24 24" fill="none" stroke="currentColor" stroke-width="1.7" stroke-linecap="round" stroke-linejoin="round">
    <rect x="5" y="3.5" width="14" height="17" rx="2"/><path d="M8 7h8"/><circle cx="9" cy="12" r="1"/><circle cx="12" cy="12" r="1"/><circle cx="15" cy="12" r="1"/><circle cx="9" cy="16" r="1"/><circle cx="12" cy="16" r="1"/><circle cx="15" cy="16" r="1"/>
  </symbol>
  <symbol id="ic-reporting" viewBox="0 0 24 24" fill="none" stroke="currentColor" stroke-width="1.7" stroke-linecap="round" stroke-linejoin="round">
    <path d="M6 3.5h8l5 5V20a1 1 0 0 1-1 1H6a1 1 0 0 1-1-1V4.5a1 1 0 0 1 1-1z"/><path d="M14 3.5V9h5"/><path d="M8 13h8M8 16.5h5"/>
  </symbol>
  <symbol id="ic-compliance" viewBox="0 0 24 24" fill="none" stroke="currentColor" stroke-width="1.7" stroke-linecap="round" stroke-linejoin="round">
    <path d="M12 3 5 6v5c0 4.2 2.9 7.5 7 9 4.1-1.5 7-4.8 7-9V6l-7-3z"/><path d="M9 12l2 2 4-4"/>
  </symbol>
  <symbol id="ic-investors" viewBox="0 0 24 24" fill="none" stroke="currentColor" stroke-width="1.7" stroke-linecap="round" stroke-linejoin="round">
    <circle cx="9" cy="8" r="2.8"/><path d="M3.5 19c0-3.3 2.5-5.5 5.5-5.5s5.5 2.2 5.5 5.5"/><circle cx="17.5" cy="9" r="2.2"/><path d="M15 14.2c2.8.2 5 2.2 5 4.8"/>
  </symbol>
  <symbol id="ic-middle" viewBox="0 0 24 24" fill="none" stroke="currentColor" stroke-width="1.7" stroke-linecap="round" stroke-linejoin="round">
    <path d="M12 3.2 3.5 7.5v9L12 20.8l8.5-4.3v-9L12 3.2z"/><path d="M12 3.2v17.6M3.5 7.5 12 12l8.5-4.5"/>
  </symbol>
  <symbol id="ic-treasury" viewBox="0 0 24 24" fill="none" stroke="currentColor" stroke-width="1.7" stroke-linecap="round" stroke-linejoin="round">
    <path d="M4 9 12 4l8 5"/><path d="M4 9h16v2H4z"/><path d="M6 11v7M10 11v7M14 11v7M18 11v7"/><path d="M4 20h16"/>
  </symbol>
  <symbol id="ic-invest" viewBox="0 0 24 24" fill="none" stroke="currentColor" stroke-width="1.7" stroke-linecap="round" stroke-linejoin="round">
    <path d="M4 16l5-5 3.5 3.5L20 7"/><path d="M20 7h-4M20 7v4"/><path d="M4 20h16"/>
  </symbol>
  <symbol id="ic-risk" viewBox="0 0 24 24" fill="none" stroke="currentColor" stroke-width="1.7" stroke-linecap="round" stroke-linejoin="round">
    <path d="M12 4 3 19h18L12 4z"/><path d="M12 10v4"/><circle cx="12" cy="16.6" r=".6" fill="currentColor"/>
  </symbol>
  <symbol id="ic-bi" viewBox="0 0 24 24" fill="none" stroke="currentColor" stroke-width="1.7" stroke-linecap="round" stroke-linejoin="round">
    <circle cx="12" cy="12" r="8.5"/><path d="M12 12V4.5M12 12l6 4.2"/>
  </symbol>
  <symbol id="ic-corporate" viewBox="0 0 24 24" fill="none" stroke="currentColor" stroke-width="1.7" stroke-linecap="round" stroke-linejoin="round">
    <rect x="5" y="4" width="9" height="16" rx="1"/><path d="M14 9h5v11H5"/><path d="M8 8h3M8 11h3M8 14h3M16.5 12h.01M16.5 15h.01"/>
  </symbol>
  <symbol id="ic-support" viewBox="0 0 24 24" fill="none" stroke="currentColor" stroke-width="1.7" stroke-linecap="round" stroke-linejoin="round">
    <path d="M5 12a7 7 0 0 1 14 0"/><rect x="3.5" y="12" width="3" height="5" rx="1.2"/><rect x="17.5" y="12" width="3" height="5" rx="1.2"/><path d="M19 17v1.5a2.5 2.5 0 0 1-2.5 2.5H13"/><circle cx="11.5" cy="21" r="1.2"/>
  </symbol>
  <symbol id="ic-alert" viewBox="0 0 24 24" fill="none" stroke="currentColor" stroke-width="1.7" stroke-linecap="round" stroke-linejoin="round">
    <circle cx="12" cy="12" r="8.5"/><path d="M12 7.5v5"/><circle cx="12" cy="16" r=".6" fill="currentColor"/>
  </symbol>
  <symbol id="ic-check" viewBox="0 0 24 24" fill="none" stroke="currentColor" stroke-width="1.7" stroke-linecap="round" stroke-linejoin="round">
    <circle cx="12" cy="12" r="8.5"/><path d="M8 12.2l2.6 2.6L16 9.4"/>
  </symbol>
  <symbol id="ic-gears" viewBox="0 0 24 24" fill="none" stroke="currentColor" stroke-width="1.7" stroke-linecap="round" stroke-linejoin="round">
    <circle cx="10" cy="10" r="3"/><path d="M10 4.5v2M10 13.5v2M4.5 10h2M13.5 10h2M6.1 6.1l1.4 1.4M12.5 12.5l1.4 1.4M13.9 6.1l-1.4 1.4M7.5 12.5l-1.4 1.4"/><circle cx="17" cy="17" r="2"/><path d="M17 13.5v1M17 19.5v1M13.5 17h1M19.5 17h1"/>
  </symbol>
  <symbol id="ic-target" viewBox="0 0 24 24" fill="none" stroke="currentColor" stroke-width="1.7" stroke-linecap="round" stroke-linejoin="round">
    <circle cx="12" cy="12" r="8.5"/><circle cx="12" cy="12" r="4.8"/><circle cx="12" cy="12" r="1.2" fill="currentColor"/>
  </symbol>
  <symbol id="ic-database" viewBox="0 0 24 24" fill="none" stroke="currentColor" stroke-width="1.7" stroke-linecap="round" stroke-linejoin="round">
    <ellipse cx="12" cy="6" rx="7" ry="2.6"/><path d="M5 6v12c0 1.4 3.1 2.6 7 2.6s7-1.2 7-2.6V6"/><path d="M5 12c0 1.4 3.1 2.6 7 2.6s7-1.2 7-2.6"/>
  </symbol>
  <symbol id="ic-arrow" viewBox="0 0 24 24" fill="none" stroke="currentColor" stroke-width="1.7" stroke-linecap="round" stroke-linejoin="round">
    <path d="M4 12h15M13 6l6 6-6 6"/>
  </symbol>
  <symbol id="ic-server" viewBox="0 0 24 24" fill="none" stroke="currentColor" stroke-width="1.7" stroke-linecap="round" stroke-linejoin="round">
    <rect x="4" y="4" width="16" height="7" rx="1.5"/><rect x="4" y="13" width="16" height="7" rx="1.5"/><circle cx="7.5" cy="7.5" r=".7" fill="currentColor"/><circle cx="7.5" cy="16.5" r=".7" fill="currentColor"/><path d="M11 7.5h6M11 16.5h6"/>
  </symbol>
</svg>
